<?xml version="1.0" encoding="utf-8"?>
<!-- Generator: Adobe Illustrator 24.3.0, SVG Export Plug-In . SVG Version: 6.00 Build 0)  -->
<svg version="1.1" id="Layer_1" xmlns="http://www.w3.org/2000/svg" xmlns:xlink="http://www.w3.org/1999/xlink" x="0px" y="0px"
	 viewBox="0 0 174.647 174.647" style="enable-background:new 0 0 174.647 174.647;" xml:space="preserve">
<style type="text/css">
	.st0{fill:url(#SVGID_1_);}
</style>
<linearGradient id="SVGID_1_" gradientUnits="userSpaceOnUse" x1="143.4295" y1="20.4592" x2="31.2185" y2="154.1871">
	<stop  offset="0" style="stop-color:#EBCA00"/>
	<stop  offset="1" style="stop-color:#B98400"/>
</linearGradient>
<path class="st0" d="M110.954,114.233h-10.625v0.962c0.8,0,1.45,0.065,1.946,0.192c0.496,0.128,0.881,0.393,1.154,0.794
	c0.271,0.401,0.458,0.96,0.553,1.681s0.144,1.691,0.144,2.908v7.692c0,1.187-0.049,2.149-0.144,2.884
	c-0.095,0.739-0.282,1.316-0.553,1.732c-0.273,0.417-0.658,0.689-1.154,0.818c-0.496,0.128-1.146,0.19-1.946,0.19v0.962h17.98
	l0.383-5.817h-0.96l-0.241,0.962c-0.13,0.577-0.288,1.057-0.48,1.442s-0.482,0.697-0.867,0.938
	c-0.385,0.239-0.913,0.417-1.586,0.529c-0.672,0.111-1.555,0.168-2.645,0.168h-0.577c-0.8,0-1.448-0.065-1.946-0.192
	c-0.496-0.128-0.881-0.393-1.152-0.794c-0.273-0.399-0.458-0.968-0.553-1.705c-0.097-0.737-0.144-1.699-0.144-2.886v-2.787h0.288
	c1.217,0,2.171,0.047,2.86,0.144c0.689,0.095,1.203,0.282,1.539,0.553s0.553,0.656,0.648,1.154c0.097,0.496,0.144,1.144,0.144,1.946
	h0.962v-9.375h-0.962c0,0.802-0.047,1.45-0.144,1.948c-0.095,0.496-0.312,0.881-0.648,1.152c-0.336,0.273-0.851,0.458-1.539,0.553
	c-0.689,0.097-1.642,0.144-2.86,0.144h-0.288v-7.161h3.22c1.09,0,1.971,0.055,2.643,0.168c0.674,0.111,1.203,0.288,1.588,0.529
	c0.383,0.241,0.664,0.561,0.84,0.962c0.176,0.401,0.328,0.873,0.456,1.418l0.241,0.962h1.011l-0.385-5.77L110.954,114.233
	L110.954,114.233z M65.476,114.233H54.805v0.962c0.703,0,1.288,0.057,1.754,0.168c0.464,0.113,0.865,0.32,1.201,0.626
	c0.336,0.304,0.64,0.737,0.913,1.296c0.271,0.561,0.553,1.274,0.84,2.141l5.339,16.441h0.624l5-15.048l4.903,15.048h0.624
	l5.529-16.441c0.288-0.867,0.569-1.58,0.84-2.141c0.273-0.559,0.585-0.992,0.938-1.296c0.352-0.306,0.778-0.512,1.274-0.626
	c0.496-0.111,1.114-0.168,1.851-0.168v-0.962h-9.037v0.962c1.537,0,2.467,0.257,2.787,0.77c0.32,0.512,0.241,1.474-0.239,2.884
	l-3.317,9.806l-4.713-14.422h-0.96l-4.855,14.422l-3.222-9.806c-0.225-0.737-0.352-1.347-0.385-1.827
	c-0.032-0.482,0.057-0.857,0.265-1.13c0.209-0.271,0.537-0.456,0.984-0.553c0.45-0.095,1.027-0.144,1.732-0.144L65.476,114.233
	L65.476,114.233z M107.359,73.019l0.529-9.292h-1.912l-0.33,1.318c-0.221,0.879-0.45,1.636-0.693,2.272
	c-0.241,0.638-0.624,1.154-1.152,1.549c-0.527,0.395-1.241,0.693-2.143,0.889c-0.901,0.198-2.118,0.298-3.658,0.298h-7.579
	c-1.363,0-2.461-0.087-3.295-0.263s-1.472-0.549-1.912-1.122c-0.439-0.569-0.735-1.361-0.889-2.372s-0.231-2.329-0.231-3.955V43.098
	c0-1.669,0.077-2.999,0.231-3.988c0.154-0.988,0.45-1.768,0.889-2.339s1.077-0.944,1.912-1.12c0.834-0.176,1.932-0.263,3.295-0.263
	v-1.912H69.596v1.912c1.361,0,2.461,0.087,3.295,0.263s1.47,0.549,1.912,1.12c0.437,0.571,0.723,1.351,0.857,2.339
	c0.132,0.988,0.196,2.319,0.196,3.988v20.299c0,1.626-0.065,2.945-0.196,3.955c-0.134,1.011-0.419,1.8-0.857,2.372
	c-0.442,0.571-1.077,0.946-1.912,1.12c-0.834,0.176-1.934,0.265-3.295,0.265v1.91C69.596,73.019,107.359,73.019,107.359,73.019z
	 M37.082,95.509h99.333v-2.953H37.082V95.509z M171.694,87.323c0,46.522-37.848,84.371-84.371,84.371s-84.37-37.848-84.37-84.371
	s37.848-84.37,84.37-84.37S171.694,40.801,171.694,87.323 M174.647,87.323C174.647,39.175,135.474,0,87.323,0
	C39.175,0,0,39.175,0,87.323s39.175,87.323,87.323,87.323C135.474,174.647,174.647,135.472,174.647,87.323"/>
</svg>
